<svg xmlns="http://www.w3.org/2000/svg" xmlns:xlink="http://www.w3.org/1999/xlink" width="16" height="16" version="1.1" viewBox="0 0 16 16"><title>kigamae</title><description>Created with Sketch (http://www.bohemiancoding.com/sketch)</description><g id="Page 1" fill="none" fill-rule="evenodd" stroke="none" stroke-width="1"><g id="kigamae" fill="#383838" transform="translate(8.000000, 8.000000) scale(1, -1) translate(-8.000000, -8.000000)"><path id="Shape" d="M0,8 L0,0 L8,0 L16,0 L16,8 L16,16 L8,16 L0,16 L0,8 L0,8 Z M6.4,6.4 L6.4,1.6 L4,1.6 L1.6,1.6 L1.6,6.4 L1.6,11.2 L4,11.2 L6.4,11.2 L6.4,6.4 L6.4,6.4 Z M9.6,4.8 L9.6,14.4 L14.4,14.4 L14.4,4.8 L9.6,4.8 Z M9.6,4.8"/></g></g></svg>